 http://img692.imageshack.us/img692/3856/marchofthedinosaurs2011.jpg

Country.......: United Kingdom
Genre.........: Documentary, Adventure, Fantasy
Date release..: 23.04.2011 [World]
Director......: Matthew Thompson
Writers.......: Jasper James, Matthew Thompson
Duration......: 89 min.
More..........: http://www.imdb.com/title/tt1737591
Trailer.......:

Pilot :
March of the Dinosaurs, a 90min long documentary that tells the story of how some Cretaceous dinosaurs migrated hunds of miles to exploit the rich feeding grounds of the far north, whilst other dinosaurs made the north and its freezing, dark winters their permanent home, The programmes is based on real scientific evidence that some types of dinosaurs migrated vast distances to exploit food reserves whilst others made the far north of America their permanent residence. The story of the migration (an Edmontosaurus herd) is narrated by Stephen Fry. It is a feature length animation that shows how dinosaurs lived more than seventy million years ago in the Arctic Circle. To read about the research work that the programme is based upon: Dinosaurs of the Arctic The programme follows the story of two young dinosaurs – Scar, a young vegetarian Edmontosaurus who hatched in the spring, and Patch, a young male feathe, raptor-like Troodon. As a carnivore, Patch has fed all summer on baby Edmontosaurus. Unfortunately for him his favourite food is shortly going to be heading south. Troodon like Patch are equipped to cope through the winter and the film follows his stay in the harsh North. It will be survival of the fittest as they fight for the remaining food in the permanent darkness. Everyone and everything is fair game. Such scenarios are scene with extant animals today, such as the Arctic Fox which enjoys a time of plenty when the migrating birds arrive and nest, but the foxes face leaner times when the birds leave.

Cats :
Stephen Fry   	 ...  	Narrator 

Data Technical :
!!! SAMPLE !!!
Audio.....: English
Subtitles.: None
Format                           : AVI
Format/Info                      : Audio Video Interleave
File size                        : 1.45 GiB
Duration                         : 1h 29mn
Overall bit rate                 : 2 328 Kbps
Writing library                  : VirtualDub build 32593/release
Video
ID                               : 0
Format                           : MPEG-4 Visual
Format profile                   : Advanced Simple@L5
Format settings, BVOP            : Yes
Format settings, QPel            : No
Format settings, GMC             : No warppoints
Format settings, Matrix          : Default (MPEG)
Muxing mode                      : Packed bitstream
Codec ID                         : XVID
Codec ID/Hint                    : XviD
Duration                         : 1h 29mn
Bit rate                         : 1 870 Kbps
Width                            : 720 pixels
Height                           : 400 pixels
Display aspect ratio             : 16:9
Frame rate                       : 23.976 fps
Color space                      : YUV
Chroma subsampling               : 4:2:0
Bit depth                        : 8 bits
Scan type                        : Progressive
Bits/(Pixel*Frame)               : 0.271
Stream size                      : 1.16 GiB (80%)
Writing library                  : XviD 1.2.1 (UTC 2008-12-04)
Audio
ID                               : 1
Format                           : AC-3
Format/Info                      : Audio Coding 3
Mode extension                   : CM (complete main)
Codec ID                         : 2000
Duration                         : 1h 28mn
Bit rate mode                    : Constant
Bit rate                         : 448 Kbps
Channel(s)                       : 6 channels
Channel positions                : Front: L C R, Side: L R, LFE
Sampling rate                    : 48.0 KHz
Bit depth                        : 16 bits
Stream size                      : 285 MiB (19%)
Alignment                        : Aligned on interleaves
Interleave, duration             : 42 ms (1.00 video frame)
Interleave, preload duration     : 512 ms

Screen : 
http://img27.imageshack.us/img27/3856/marchofthedinosaurs2011.jpg 
http://img850.imageshack.us/img850/3856/marchofthedinosaurs2011.jpg 
http://img846.imageshack.us/img846/3856/marchofthedinosaurs2011.jpg 
http://img853.imageshack.us/img853/3856/marchofthedinosaurs2011.jpg 
http://img6.imageshack.us/img6/3856/marchofthedinosaurs2011.jpg